<svg version="1.1" id="Layer_1" xmlns="http://www.w3.org/2000/svg" xmlns:xlink="http://www.w3.org/1999/xlink" x="0px" y="0px"
	 width="100%" viewBox="0 0 400 400" enable-background="new 0 0 400 400" xml:space="preserve">
<path fill="#000000" opacity="1.000000" stroke="none" 
	d="
M258.000000,401.000000 
	C172.000000,401.000000 86.500000,401.000000 1.000000,401.000000 
	C1.000000,267.666656 1.000000,134.333328 1.000000,1.000000 
	C134.333328,1.000000 267.666656,1.000000 401.000000,1.000000 
	C401.000000,134.333328 401.000000,267.666656 401.000000,401.000000 
	C353.500000,401.000000 306.000000,401.000000 258.000000,401.000000 
M122.601982,334.424469 
	C123.052010,334.541290 123.502113,334.760590 123.952065,334.760284 
	C146.579376,334.744843 169.206741,334.666077 191.833984,334.688232 
	C233.039352,334.728577 267.702118,319.778107 295.315857,289.145477 
	C303.780579,279.755310 311.056915,269.402649 315.945374,256.836029 
	C326.714050,232.417984 329.716461,207.091934 324.608002,180.885345 
	C321.182587,163.313110 315.145264,146.773224 304.390717,131.512344 
	C295.059875,117.741982 283.920532,105.720589 270.174072,96.239037 
	C237.259354,73.536278 200.670929,64.174423 161.006454,66.973618 
	C147.968811,67.893707 135.035965,70.299065 121.880280,72.048500 
	C121.880280,76.693810 121.865227,80.177055 121.882767,83.660126 
	C121.984245,103.811928 122.093391,123.963692 121.989464,145.016998 
	C121.959160,206.872772 121.925873,268.728546 121.921883,330.584320 
	C121.921814,331.716461 122.271004,332.848602 122.601982,334.424469 
z"/>
<path fill="#FD4DB2" opacity="1.000000" stroke="none" 
	d="
M122.199944,144.115463 
	C122.093391,123.963692 121.984245,103.811928 121.882767,83.660126 
	C121.865227,80.177055 121.880280,76.693810 121.880280,72.048500 
	C135.035965,70.299065 147.968811,67.893707 161.006454,66.973618 
	C200.670929,64.174423 237.259354,73.536278 270.174072,96.239037 
	C283.920532,105.720589 295.059875,117.741982 304.280579,132.090271 
	C291.169464,145.254532 278.168457,157.840881 264.829102,170.245239 
	C263.843475,168.733734 263.182068,167.410904 262.551178,166.073669 
	C255.154312,150.395447 244.036011,138.056076 228.804352,129.792572 
	C214.297821,121.922478 198.643112,120.194199 182.321716,121.863152 
	C177.558014,122.350273 176.301804,123.631248 176.354889,128.310867 
	C176.532288,143.949707 176.215469,159.594147 175.740509,175.132080 
	C157.662033,164.723633 139.930984,154.419540 122.199944,144.115463 
z"/>
<path fill="#47C923" opacity="1.000000" stroke="none" 
	d="
M315.511475,257.362885 
	C311.056915,269.402649 303.780579,279.755310 295.315857,289.145477 
	C267.702118,319.778107 233.039352,334.728577 191.833984,334.688232 
	C169.206741,334.666077 146.579376,334.744843 123.952065,334.760284 
	C123.502113,334.760590 123.052010,334.541290 122.690689,333.937561 
	C139.431610,317.596283 156.025116,301.679291 172.795746,285.951111 
	C175.488159,283.426056 176.429077,280.872375 176.419815,277.267212 
	C176.334122,243.939835 176.418961,210.612015 176.525482,177.536041 
	C176.596725,212.515045 176.596725,247.242325 176.596725,282.595947 
	C183.940521,282.595947 190.729538,282.794586 197.503555,282.560059 
	C221.339966,281.734650 240.959610,272.091156 255.211121,252.979279 
	C260.468933,245.928314 263.760406,237.411087 268.307434,229.658951 
	C284.281219,238.957809 299.896362,248.160339 315.511475,257.362885 
z"/>
<path fill="#21AFFE" opacity="1.000000" stroke="none" 
	d="
M176.454224,177.284332 
	C176.418961,210.612015 176.334122,243.939835 176.419815,277.267212 
	C176.429077,280.872375 175.488159,283.426056 172.795746,285.951111 
	C156.025116,301.679291 139.431610,317.596283 122.618317,333.715698 
	C122.271004,332.848602 121.921814,331.716461 121.921883,330.584320 
	C121.925873,268.728546 121.959160,206.872772 122.094704,144.566223 
	C139.930984,154.419540 157.662033,164.723633 175.881042,175.635284 
	C176.397415,176.590012 176.425812,176.937180 176.454224,177.284332 
z"/>
<path fill="#FDDA00" opacity="1.000000" stroke="none" 
	d="
M315.728424,257.099457 
	C299.896362,248.160339 284.281219,238.957809 268.244659,229.279633 
	C270.663849,216.214676 271.828552,203.490677 269.785706,190.701859 
	C268.694733,183.872025 266.735077,177.180939 265.167480,170.427246 
	C278.168457,157.840881 291.169464,145.254532 304.333954,132.413879 
	C315.145264,146.773224 321.182587,163.313110 324.608002,180.885345 
	C329.716461,207.091934 326.714050,232.417984 315.728424,257.099457 
z"/>
<path fill="#010101" opacity="1.000000" stroke="none" 
	d="
M264.829102,170.245239 
	C266.735077,177.180939 268.694733,183.872025 269.785706,190.701859 
	C271.828552,203.490677 270.663849,216.214676 267.885986,229.183289 
	C263.760406,237.411087 260.468933,245.928314 255.211121,252.979279 
	C240.959610,272.091156 221.339966,281.734650 197.503555,282.560059 
	C190.729538,282.794586 183.940521,282.595947 176.596725,282.595947 
	C176.596725,247.242325 176.596725,212.515045 176.525467,177.536041 
	C176.425812,176.937180 176.397415,176.590012 176.228485,175.739655 
	C176.215469,159.594147 176.532288,143.949707 176.354889,128.310867 
	C176.301804,123.631248 177.558014,122.350273 182.321716,121.863152 
	C198.643112,120.194199 214.297821,121.922478 228.804352,129.792572 
	C244.036011,138.056076 255.154312,150.395447 262.551178,166.073669 
	C263.182068,167.410904 263.843475,168.733734 264.829102,170.245239 
z"/>
</svg>